<?xml version="1.0" encoding="utf-8"?>
<!-- Generator: Adobe Illustrator 24.0.1, SVG Export Plug-In . SVG Version: 6.00 Build 0)  -->
<svg version="1.1" id="Layer_1" xmlns="http://www.w3.org/2000/svg" xmlns:xlink="http://www.w3.org/1999/xlink" x="0px" y="0px"
	 viewBox="0 0 129 131" style="enable-background:new 0 0 129 131;" xml:space="preserve">
<style type="text/css">
	.st0{opacity:0.8;fill:#00C5CD;enable-background:new    ;}
	.st1{opacity:0.8;}
	.st2{fill:#00C5CD;}
</style>
<title>squre</title>
<path class="st0" d="M123.6,131H28.4c-3,0-5.4-2.4-5.4-5.4l0,0V30.4c0-3,2.4-5.4,5.4-5.4l0,0h95.1c3,0,5.4,2.4,5.4,5.4v95.1
	C129,128.6,126.6,131,123.6,131z"/>
<g class="st1">
	<path class="st2" d="M100.6,106H5.4c-3,0-5.4-2.4-5.4-5.4l0,0V5.4C0,2.4,2.4,0,5.4,0c0,0,0,0,0,0h95.1c3,0,5.4,2.4,5.4,5.4l0,0
		v95.1C106,103.6,103.6,106,100.6,106L100.6,106z"/>
</g>
</svg>
